<?xml version="1.0" encoding="UTF-8" standalone="no"?>
<!-- Created with Inkscape (http://www.inkscape.org/) -->

<svg
   xmlns:dc="http://purl.org/dc/elements/1.1/"
   xmlns:cc="http://creativecommons.org/ns#"
   xmlns:rdf="http://www.w3.org/1999/02/22-rdf-syntax-ns#"
   xmlns:svg="http://www.w3.org/2000/svg"
   xmlns="http://www.w3.org/2000/svg"
   xmlns:xlink="http://www.w3.org/1999/xlink"
   xmlns:sodipodi="http://sodipodi.sourceforge.net/DTD/sodipodi-0.dtd"
   xmlns:inkscape="http://www.inkscape.org/namespaces/inkscape"
   width="500"
   height="500"
   id="svg2"
   version="1.1"
   inkscape:version="0.48.2 r9819"
   sodipodi:docname="logo.svg">
  <defs
     id="defs4">
    <linearGradient
       id="linearGradient3993">
      <stop
         style="stop-color:#ffffff;stop-opacity:1;"
         offset="0"
         id="stop3995" />
      <stop
         style="stop-color:#848484;stop-opacity:1;"
         offset="1"
         id="stop3997" />
    </linearGradient>
    <linearGradient
       id="linearGradient3987">
      <stop
         id="stop3989"
         offset="0"
         style="stop-color:#727272;stop-opacity:1;" />
      <stop
         id="stop3991"
         offset="1"
         style="stop-color:#b4b4b4;stop-opacity:1;" />
    </linearGradient>
    <linearGradient
       id="linearGradient3971">
      <stop
         style="stop-color:#727272;stop-opacity:1;"
         offset="0"
         id="stop3973" />
      <stop
         style="stop-color:#e9e9e9;stop-opacity:1;"
         offset="1"
         id="stop3975" />
    </linearGradient>
    <linearGradient
       inkscape:collect="always"
       xlink:href="#linearGradient3971"
       id="linearGradient3977"
       x1="257.59122"
       y1="259.58582"
       x2="362.59396"
       y2="-96.020088"
       gradientUnits="userSpaceOnUse"
       spreadMethod="reflect" />
    <linearGradient
       inkscape:collect="always"
       xlink:href="#linearGradient3987"
       id="linearGradient3985"
       x1="274.46201"
       y1="355.04056"
       x2="298.78571"
       y2="249.6116"
       gradientUnits="userSpaceOnUse"
       spreadMethod="reflect" />
    <radialGradient
       inkscape:collect="always"
       xlink:href="#linearGradient3993"
       id="radialGradient3999"
       cx="283.52634"
       cy="253.68154"
       fx="283.52634"
       fy="253.68154"
       r="169.77325"
       gradientTransform="matrix(1,0,0,1.2115186,0,-53.658365)"
       gradientUnits="userSpaceOnUse" />
    <linearGradient
       inkscape:collect="always"
       xlink:href="#linearGradient3987"
       id="linearGradient4025"
       x1="330.07074"
       y1="27.311161"
       x2="64.57589"
       y2="101.59688"
       gradientUnits="userSpaceOnUse" />
  </defs>
  <sodipodi:namedview
     id="base"
     pagecolor="#ffffff"
     bordercolor="#666666"
     borderopacity="1.0"
     inkscape:pageopacity="0.0"
     inkscape:pageshadow="2"
     inkscape:zoom="0.70000001"
     inkscape:cx="250.3154"
     inkscape:cy="245.73168"
     inkscape:document-units="px"
     inkscape:current-layer="layer1"
     showgrid="false"
     inkscape:snap-global="false"
     inkscape:snap-grids="false"
     inkscape:snap-nodes="true"
     inkscape:object-nodes="true"
     inkscape:snap-smooth-nodes="true"
     inkscape:snap-midpoints="true"
     inkscape:window-width="1280"
     inkscape:window-height="750"
     inkscape:window-x="-4"
     inkscape:window-y="-3"
     inkscape:window-maximized="1">
    <inkscape:grid
       type="xygrid"
       id="grid2985"
       empspacing="5"
       visible="true"
       enabled="true"
       snapvisiblegridlinesonly="true"
       spacingx="5px"
       spacingy="5px" />
  </sodipodi:namedview>
  <metadata
     id="metadata7">
    <rdf:RDF>
      <cc:Work
         rdf:about="">
        <dc:format>image/svg+xml</dc:format>
        <dc:type
           rdf:resource="http://purl.org/dc/dcmitype/StillImage" />
        <dc:title />
      </cc:Work>
    </rdf:RDF>
  </metadata>
  <g
     inkscape:label="Layer 1"
     inkscape:groupmode="layer"
     id="layer1"
     transform="translate(0,-552.36218)">
    <path
       style="fill:url(#linearGradient3977);fill-opacity:1;stroke:#545454;stroke-width:10;stroke-linecap:butt;stroke-linejoin:miter;stroke-opacity:1;stroke-miterlimit:4;stroke-dasharray:none"
       d="M 313.14729,53.512575 238.396,36.339982 c 0,0 -146.122618,-8.38257 -184.857916,172.736088 C 6.8224103,427.5094 256.6861,452.48704 256.57874,452.52283 120.17043,330.70366 97.906078,204.85957 313.14729,53.512575 z"
       id="path3899"
       inkscape:connector-curvature="0"
       transform="translate(0,552.36218)"
       sodipodi:nodetypes="ccscc" />
    <path
       style="fill:url(#radialGradient3999);fill-opacity:1;stroke:#545454;stroke-width:10;stroke-linecap:butt;stroke-linejoin:miter;stroke-miterlimit:4;stroke-opacity:1;stroke-dasharray:none"
       d="m 296.71875,53 c -84.07827,0.490632 -158.7579,95.82218 -173.46875,173.25 -16.0916,84.6951 7.72141,208.28873 125.25,226.28125 87.71761,13.42874 147.00733,-48.97574 179.8125,-119.21875 39.90698,-85.44953 26.6023,-239.688848 -100.28125,-276 -10.5145,-3.009009 -20.9871,-4.372753 -31.3125,-4.3125 z m -20.9375,104.5625 c 26.26397,36.36549 29.6667,61.98772 23.00446,92.04911 -8.35216,37.68667 -19.99762,65.16006 -73.53571,88.76339 -41.45215,-28.51886 -20.55305,-96.67867 -17.15625,-109.09375 4.40758,-16.10938 23.61892,-61.13735 67.6875,-71.71875 z"
       transform="translate(0,552.36218)"
       id="path3897"
       inkscape:connector-curvature="0"
       sodipodi:nodetypes="sssssscscsc" />
    <path
       style="fill:url(#linearGradient3985);fill-opacity:1;stroke:#545454;stroke-width:10;stroke-linecap:butt;stroke-linejoin:miter;stroke-miterlimit:4;stroke-opacity:1;stroke-dasharray:none"
       d="m 225.25,338.375 c 57.88849,47.36277 112.53396,6.9074 130.32369,-34.3446 22.01617,-51.05256 22.51454,-174.68252 -79.79244,-146.4679 14.66901,30.10985 36.14223,55.24533 17.16299,106.0618 -11.8501,32.19197 -34.29707,58.71904 -67.69424,74.7507 z"
       id="path3904"
       inkscape:connector-curvature="0"
       sodipodi:nodetypes="caccc"
       transform="translate(0,552.36218)" />
    <path
       style="fill:url(#linearGradient4025);fill-opacity:1;stroke:#545454;stroke-width:10;stroke-linecap:butt;stroke-linejoin:miter;stroke-miterlimit:4;stroke-opacity:1;stroke-dasharray:none"
       d="M 55.070731,71.232297 C 103.30095,46.966519 184.53494,37.473014 238.396,36.339982 L 296.71875,53 C 247.1468,60.777172 201.06563,63.318174 146.70235,78.282338 131.54404,67.570351 112.64532,67.117023 55.070731,71.232297 z"
       id="path4001"
       inkscape:connector-curvature="0"
       transform="translate(0,552.36218)"
       sodipodi:nodetypes="ccccc" />
    <path
       sodipodi:type="spiral"
       style="fill:none;stroke:#000000;stroke-width:5.52999686999999973;stroke-linecap:butt;stroke-linejoin:miter;stroke-opacity:0.14563107;stroke-miterlimit:4;stroke-dasharray:none"
       id="path5642"
       sodipodi:cx="203.04066"
       sodipodi:cy="185.84256"
       sodipodi:expansion="1"
       sodipodi:revolution="20.03919"
       sodipodi:radius="200.38403"
       sodipodi:argument="-30.50456"
       sodipodi:t0="0.53376669"
       d="m 261.08788,96.006023 c 50.07114,31.307067 65.10457,99.353447 33.88904,149.240467 -32.04635,51.2148 -101.66596,66.58641 -152.69691,34.63205 C 89.921564,247.09292 74.211757,175.90006 106.90497,123.72519 140.42984,70.22308 213.19597,54.175077 266.51475,87.607143 321.16053,121.87126 337.54673,196.21068 303.3758,250.67337 268.37244,306.46282 192.45974,323.18722 136.85314,288.27742 79.920015,252.53482 62.85741,175.04881 98.506088,118.29831 134.98791,60.221511 214.04724,42.8207 271.94163,79.208263 331.16212,116.4293 348.90114,197.06196 311.77468,256.10024 273.81443,316.46442 191.60843,334.54165 131.42626,296.6763 69.918395,257.97684 51.502955,174.19749 90.107208,112.87144 129.54586,50.219876 214.89857,31.466222 277.3685,70.809383 341.16377,110.98723 360.25564,197.91331 320.17356,261.52712 279.25653,326.46608 190.75707,345.89617 125.99939,305.07518 59.916719,263.41896 40.148413,173.34612 81.708328,107.44457 124.10373,40.218188 215.74995,20.111662 282.79538,62.410504 351.16547,105.54508 371.61021,198.7647 328.57244,266.95399 284.6987,336.46779 189.90566,357.25076 120.57252,313.47406 49.914999,268.86115 28.793803,172.4947 73.309449,102.01769 118.66152,30.216458 216.60139,8.7570362 288.22225,54.011624 361.1672,100.10285 382.96485,199.61614 336.97132,272.38086 290.14094,346.46954 189.05422,368.60542 115.14564,321.87294 39.913243,274.3034 17.439136,171.64324 64.910569,96.590818 113.21926,20.214694 217.45285,-2.5976433 293.64912,45.612744 371.16898,94.660576 394.31954,200.46762 345.3702,277.80774 295.58323,356.47132 188.20273,379.96012 109.71877,330.27182 29.911456,279.7457 6.0844222,170.79175 56.511689,91.163944 107.77694,10.212901 218.30435,-13.952368 299.076,37.213864 381.17078,89.218253 405.67428,201.31912 353.76908,283.23461 301.02556,366.47312 187.35122,391.31486 104.29189,338.6707 19.909645,285.18804 -5.2703308,169.94024 48.112809,85.73707 102.33459,0.2110834 219.15587,-25.307129 304.50287,28.814984 391.1726,83.77589 417.02905,202.17065 362.16796,288.66149 306.46793,376.47495 186.49969,402.66964 98.865019,347.06958 9.9078118,290.63042 -16.625117,169.0887 39.713929,80.310196 96.892202,-9.7907543 220.00741,-36.661923 309.92975,20.416104 c 91.24469,57.917391 118.4541,182.606086 60.63709,273.672256 -20.90797,32.93164 -51.4685,59.32987 -87.06532,75.2748"
       transform="matrix(0.75221617,0.30804064,-0.37137891,0.93471118,202.38041,571.07155)" />
  </g>
</svg>
